<mxfile host="app.diagrams.net" modified="2021-07-12T03:02:59.724Z" agent="5.0 (Windows NT 10.0; Win64; x64) AppleWebKit/537.36 (KHTML, like Gecko) Chrome/90.0.4430.85 Safari/537.36" etag="MEmSmVyH_C-CPiFriToe" version="14.8.5" type="github">
  <diagram id="TQ8TZAOmtxQGJ_eILdmD" name="GST-架构设计(FE)">
    <mxGraphModel dx="9137" dy="4979" grid="1" gridSize="10" guides="1" tooltips="1" connect="1" arrows="1" fold="1" page="1" pageScale="1" pageWidth="827" pageHeight="1169" math="0" shadow="0">
      <root>
        <mxCell id="X6bCjIrg8prDl-xt0T5_-0" />
        <mxCell id="X6bCjIrg8prDl-xt0T5_-1" parent="X6bCjIrg8prDl-xt0T5_-0" />
        <mxCell id="X6bCjIrg8prDl-xt0T5_-2" value="" style="rounded=0;whiteSpace=wrap;html=1;" parent="X6bCjIrg8prDl-xt0T5_-1" vertex="1">
          <mxGeometry x="-10" y="510" width="1440" height="1430" as="geometry" />
        </mxCell>
        <mxCell id="X6bCjIrg8prDl-xt0T5_-23" style="edgeStyle=orthogonalEdgeStyle;rounded=0;orthogonalLoop=1;jettySize=auto;html=1;exitX=0.5;exitY=1;exitDx=0;exitDy=0;" parent="X6bCjIrg8prDl-xt0T5_-1" source="X6bCjIrg8prDl-xt0T5_-3" target="X6bCjIrg8prDl-xt0T5_-16" edge="1">
          <mxGeometry relative="1" as="geometry" />
        </mxCell>
        <mxCell id="X6bCjIrg8prDl-xt0T5_-3" value="业务组件" style="rounded=1;whiteSpace=wrap;html=1;" parent="X6bCjIrg8prDl-xt0T5_-1" vertex="1">
          <mxGeometry x="10" y="530" width="110" height="40" as="geometry" />
        </mxCell>
        <mxCell id="X6bCjIrg8prDl-xt0T5_-24" style="edgeStyle=orthogonalEdgeStyle;rounded=0;orthogonalLoop=1;jettySize=auto;html=1;exitX=0.5;exitY=1;exitDx=0;exitDy=0;" parent="X6bCjIrg8prDl-xt0T5_-1" source="X6bCjIrg8prDl-xt0T5_-4" edge="1">
          <mxGeometry relative="1" as="geometry">
            <mxPoint x="130" y="680" as="targetPoint" />
          </mxGeometry>
        </mxCell>
        <mxCell id="X6bCjIrg8prDl-xt0T5_-39" value="按需引入" style="edgeLabel;html=1;align=center;verticalAlign=middle;resizable=0;points=[];" parent="X6bCjIrg8prDl-xt0T5_-24" vertex="1" connectable="0">
          <mxGeometry x="0.4239" y="-2" relative="1" as="geometry">
            <mxPoint as="offset" />
          </mxGeometry>
        </mxCell>
        <mxCell id="X6bCjIrg8prDl-xt0T5_-4" value="公共组件" style="rounded=1;whiteSpace=wrap;html=1;" parent="X6bCjIrg8prDl-xt0T5_-1" vertex="1">
          <mxGeometry x="150" y="530" width="110" height="40" as="geometry" />
        </mxCell>
        <mxCell id="X6bCjIrg8prDl-xt0T5_-25" style="edgeStyle=orthogonalEdgeStyle;rounded=0;orthogonalLoop=1;jettySize=auto;html=1;exitX=0.5;exitY=1;exitDx=0;exitDy=0;" parent="X6bCjIrg8prDl-xt0T5_-1" source="X6bCjIrg8prDl-xt0T5_-7" target="X6bCjIrg8prDl-xt0T5_-18" edge="1">
          <mxGeometry relative="1" as="geometry" />
        </mxCell>
        <mxCell id="X6bCjIrg8prDl-xt0T5_-7" value="自定义图表库" style="rounded=1;whiteSpace=wrap;html=1;" parent="X6bCjIrg8prDl-xt0T5_-1" vertex="1">
          <mxGeometry x="290" y="530" width="110" height="40" as="geometry" />
        </mxCell>
        <mxCell id="X6bCjIrg8prDl-xt0T5_-26" style="edgeStyle=orthogonalEdgeStyle;rounded=0;orthogonalLoop=1;jettySize=auto;html=1;exitX=0.5;exitY=1;exitDx=0;exitDy=0;" parent="X6bCjIrg8prDl-xt0T5_-1" source="X6bCjIrg8prDl-xt0T5_-8" edge="1">
          <mxGeometry relative="1" as="geometry">
            <mxPoint x="484.8571428571431" y="690" as="targetPoint" />
          </mxGeometry>
        </mxCell>
        <mxCell id="X6bCjIrg8prDl-xt0T5_-8" value="&lt;span style=&quot;font-size: 13px ; background-color: rgb(255 , 255 , 255)&quot;&gt;echarts&lt;/span&gt;" style="rounded=1;whiteSpace=wrap;html=1;" parent="X6bCjIrg8prDl-xt0T5_-1" vertex="1">
          <mxGeometry x="430" y="530" width="110" height="40" as="geometry" />
        </mxCell>
        <mxCell id="X6bCjIrg8prDl-xt0T5_-27" style="edgeStyle=orthogonalEdgeStyle;rounded=0;orthogonalLoop=1;jettySize=auto;html=1;exitX=0.5;exitY=1;exitDx=0;exitDy=0;entryX=0.5;entryY=0;entryDx=0;entryDy=0;" parent="X6bCjIrg8prDl-xt0T5_-1" source="X6bCjIrg8prDl-xt0T5_-9" target="X6bCjIrg8prDl-xt0T5_-18" edge="1">
          <mxGeometry relative="1" as="geometry" />
        </mxCell>
        <mxCell id="X6bCjIrg8prDl-xt0T5_-38" value="按需引入" style="edgeLabel;html=1;align=center;verticalAlign=middle;resizable=0;points=[];" parent="X6bCjIrg8prDl-xt0T5_-27" vertex="1" connectable="0">
          <mxGeometry x="0.5623" relative="1" as="geometry">
            <mxPoint as="offset" />
          </mxGeometry>
        </mxCell>
        <mxCell id="X6bCjIrg8prDl-xt0T5_-9" value="&lt;span style=&quot;font-size: 13px ; background-color: rgb(255 , 255 , 255)&quot;&gt;antv(G)&lt;/span&gt;" style="rounded=1;whiteSpace=wrap;html=1;" parent="X6bCjIrg8prDl-xt0T5_-1" vertex="1">
          <mxGeometry x="570" y="530" width="110" height="40" as="geometry" />
        </mxCell>
        <mxCell id="X6bCjIrg8prDl-xt0T5_-28" style="edgeStyle=orthogonalEdgeStyle;rounded=0;orthogonalLoop=1;jettySize=auto;html=1;exitX=0.5;exitY=1;exitDx=0;exitDy=0;" parent="X6bCjIrg8prDl-xt0T5_-1" source="X6bCjIrg8prDl-xt0T5_-10" target="X6bCjIrg8prDl-xt0T5_-19" edge="1">
          <mxGeometry relative="1" as="geometry" />
        </mxCell>
        <mxCell id="X6bCjIrg8prDl-xt0T5_-10" value="&lt;span style=&quot;font-size: 13px ; background-color: rgb(255 , 255 , 255)&quot;&gt;公共模板&lt;/span&gt;" style="rounded=1;whiteSpace=wrap;html=1;" parent="X6bCjIrg8prDl-xt0T5_-1" vertex="1">
          <mxGeometry x="710" y="530" width="110" height="40" as="geometry" />
        </mxCell>
        <mxCell id="X6bCjIrg8prDl-xt0T5_-29" style="edgeStyle=orthogonalEdgeStyle;rounded=0;orthogonalLoop=1;jettySize=auto;html=1;exitX=0.5;exitY=1;exitDx=0;exitDy=0;" parent="X6bCjIrg8prDl-xt0T5_-1" source="X6bCjIrg8prDl-xt0T5_-12" edge="1">
          <mxGeometry relative="1" as="geometry">
            <mxPoint x="830" y="680" as="targetPoint" />
          </mxGeometry>
        </mxCell>
        <mxCell id="X6bCjIrg8prDl-xt0T5_-36" value="按需引入" style="edgeLabel;html=1;align=center;verticalAlign=middle;resizable=0;points=[];" parent="X6bCjIrg8prDl-xt0T5_-29" vertex="1" connectable="0">
          <mxGeometry x="0.4239" y="1" relative="1" as="geometry">
            <mxPoint as="offset" />
          </mxGeometry>
        </mxCell>
        <mxCell id="X6bCjIrg8prDl-xt0T5_-12" value="&lt;span style=&quot;font-size: 13px ; background-color: rgb(255 , 255 , 255)&quot;&gt;自定义模板&lt;/span&gt;" style="rounded=1;whiteSpace=wrap;html=1;" parent="X6bCjIrg8prDl-xt0T5_-1" vertex="1">
          <mxGeometry x="850" y="530" width="110" height="40" as="geometry" />
        </mxCell>
        <mxCell id="X6bCjIrg8prDl-xt0T5_-30" style="edgeStyle=orthogonalEdgeStyle;rounded=0;orthogonalLoop=1;jettySize=auto;html=1;exitX=0.5;exitY=1;exitDx=0;exitDy=0;entryX=0.5;entryY=0;entryDx=0;entryDy=0;" parent="X6bCjIrg8prDl-xt0T5_-1" source="X6bCjIrg8prDl-xt0T5_-13" target="X6bCjIrg8prDl-xt0T5_-21" edge="1">
          <mxGeometry relative="1" as="geometry" />
        </mxCell>
        <mxCell id="X6bCjIrg8prDl-xt0T5_-13" value="&lt;span style=&quot;font-size: 13px ; background-color: rgb(255 , 255 , 255)&quot;&gt;自定义样式&lt;/span&gt;" style="rounded=1;whiteSpace=wrap;html=1;" parent="X6bCjIrg8prDl-xt0T5_-1" vertex="1">
          <mxGeometry x="990" y="530" width="110" height="40" as="geometry" />
        </mxCell>
        <mxCell id="X6bCjIrg8prDl-xt0T5_-31" style="edgeStyle=orthogonalEdgeStyle;rounded=0;orthogonalLoop=1;jettySize=auto;html=1;exitX=0.5;exitY=1;exitDx=0;exitDy=0;" parent="X6bCjIrg8prDl-xt0T5_-1" source="X6bCjIrg8prDl-xt0T5_-14" edge="1">
          <mxGeometry relative="1" as="geometry">
            <mxPoint x="1200" y="680" as="targetPoint" />
          </mxGeometry>
        </mxCell>
        <mxCell id="X6bCjIrg8prDl-xt0T5_-14" value="&lt;span style=&quot;font-size: 13px ; background-color: rgb(255 , 255 , 255)&quot;&gt;公共样式(全局)&lt;/span&gt;" style="rounded=1;whiteSpace=wrap;html=1;" parent="X6bCjIrg8prDl-xt0T5_-1" vertex="1">
          <mxGeometry x="1145" y="530" width="110" height="40" as="geometry" />
        </mxCell>
        <mxCell id="X6bCjIrg8prDl-xt0T5_-32" style="edgeStyle=orthogonalEdgeStyle;rounded=0;orthogonalLoop=1;jettySize=auto;html=1;exitX=0.5;exitY=1;exitDx=0;exitDy=0;" parent="X6bCjIrg8prDl-xt0T5_-1" source="X6bCjIrg8prDl-xt0T5_-15" edge="1">
          <mxGeometry relative="1" as="geometry">
            <mxPoint x="1200" y="680" as="targetPoint" />
          </mxGeometry>
        </mxCell>
        <mxCell id="X6bCjIrg8prDl-xt0T5_-37" value="按需引入" style="edgeLabel;html=1;align=center;verticalAlign=middle;resizable=0;points=[];" parent="X6bCjIrg8prDl-xt0T5_-32" vertex="1" connectable="0">
          <mxGeometry x="0.5978" y="-5" relative="1" as="geometry">
            <mxPoint as="offset" />
          </mxGeometry>
        </mxCell>
        <mxCell id="X6bCjIrg8prDl-xt0T5_-15" value="&lt;span style=&quot;font-size: 13px ; background-color: rgb(255 , 255 , 255)&quot;&gt;第三方库(修改库)&lt;/span&gt;" style="rounded=1;whiteSpace=wrap;html=1;" parent="X6bCjIrg8prDl-xt0T5_-1" vertex="1">
          <mxGeometry x="1300" y="530" width="110" height="40" as="geometry" />
        </mxCell>
        <mxCell id="X6bCjIrg8prDl-xt0T5_-41" style="edgeStyle=orthogonalEdgeStyle;rounded=0;orthogonalLoop=1;jettySize=auto;html=1;exitX=0.5;exitY=1;exitDx=0;exitDy=0;entryX=0.5;entryY=0;entryDx=0;entryDy=0;" parent="X6bCjIrg8prDl-xt0T5_-1" source="X6bCjIrg8prDl-xt0T5_-16" target="X6bCjIrg8prDl-xt0T5_-40" edge="1">
          <mxGeometry relative="1" as="geometry" />
        </mxCell>
        <mxCell id="X6bCjIrg8prDl-xt0T5_-16" value="组件库" style="rounded=0;whiteSpace=wrap;html=1;" parent="X6bCjIrg8prDl-xt0T5_-1" vertex="1">
          <mxGeometry x="30" y="680" width="200" height="60" as="geometry" />
        </mxCell>
        <mxCell id="X6bCjIrg8prDl-xt0T5_-42" style="edgeStyle=orthogonalEdgeStyle;rounded=0;orthogonalLoop=1;jettySize=auto;html=1;exitX=0.5;exitY=1;exitDx=0;exitDy=0;" parent="X6bCjIrg8prDl-xt0T5_-1" source="X6bCjIrg8prDl-xt0T5_-18" target="X6bCjIrg8prDl-xt0T5_-40" edge="1">
          <mxGeometry relative="1" as="geometry" />
        </mxCell>
        <mxCell id="X6bCjIrg8prDl-xt0T5_-18" value="图表库" style="rounded=0;whiteSpace=wrap;html=1;" parent="X6bCjIrg8prDl-xt0T5_-1" vertex="1">
          <mxGeometry x="385" y="680" width="200" height="60" as="geometry" />
        </mxCell>
        <mxCell id="X6bCjIrg8prDl-xt0T5_-43" style="edgeStyle=orthogonalEdgeStyle;rounded=0;orthogonalLoop=1;jettySize=auto;html=1;exitX=0.5;exitY=1;exitDx=0;exitDy=0;" parent="X6bCjIrg8prDl-xt0T5_-1" source="X6bCjIrg8prDl-xt0T5_-19" edge="1">
          <mxGeometry relative="1" as="geometry">
            <mxPoint x="710" y="900" as="targetPoint" />
          </mxGeometry>
        </mxCell>
        <mxCell id="X6bCjIrg8prDl-xt0T5_-19" value="模板(页面级)" style="rounded=0;whiteSpace=wrap;html=1;" parent="X6bCjIrg8prDl-xt0T5_-1" vertex="1">
          <mxGeometry x="730" y="680" width="200" height="60" as="geometry" />
        </mxCell>
        <mxCell id="X6bCjIrg8prDl-xt0T5_-44" style="edgeStyle=orthogonalEdgeStyle;rounded=0;orthogonalLoop=1;jettySize=auto;html=1;exitX=0.5;exitY=1;exitDx=0;exitDy=0;" parent="X6bCjIrg8prDl-xt0T5_-1" source="X6bCjIrg8prDl-xt0T5_-21" edge="1">
          <mxGeometry relative="1" as="geometry">
            <mxPoint x="710" y="900" as="targetPoint" />
          </mxGeometry>
        </mxCell>
        <mxCell id="X6bCjIrg8prDl-xt0T5_-45" value="按需引入" style="edgeLabel;html=1;align=center;verticalAlign=middle;resizable=0;points=[];" parent="X6bCjIrg8prDl-xt0T5_-44" vertex="1" connectable="0">
          <mxGeometry x="0.7657" y="1" relative="1" as="geometry">
            <mxPoint as="offset" />
          </mxGeometry>
        </mxCell>
        <mxCell id="X6bCjIrg8prDl-xt0T5_-21" value="样式配置" style="rounded=0;whiteSpace=wrap;html=1;" parent="X6bCjIrg8prDl-xt0T5_-1" vertex="1">
          <mxGeometry x="1100" y="680" width="200" height="60" as="geometry" />
        </mxCell>
        <mxCell id="X6bCjIrg8prDl-xt0T5_-40" value="" style="rounded=0;whiteSpace=wrap;html=1;" parent="X6bCjIrg8prDl-xt0T5_-1" vertex="1">
          <mxGeometry x="135" y="900" width="1150" height="500" as="geometry" />
        </mxCell>
        <mxCell id="X6bCjIrg8prDl-xt0T5_-46" value="全局配置(系统级)" style="text;html=1;strokeColor=none;fillColor=none;align=center;verticalAlign=middle;whiteSpace=wrap;rounded=0;" parent="X6bCjIrg8prDl-xt0T5_-1" vertex="1">
          <mxGeometry x="607.5" y="910" width="205" height="50" as="geometry" />
        </mxCell>
        <mxCell id="X6bCjIrg8prDl-xt0T5_-47" value="" style="rounded=1;whiteSpace=wrap;html=1;" parent="X6bCjIrg8prDl-xt0T5_-1" vertex="1">
          <mxGeometry x="290" y="1110" width="830" height="230" as="geometry" />
        </mxCell>
        <mxCell id="X6bCjIrg8prDl-xt0T5_-48" value="&lt;span style=&quot;font-size: 13px ; background-color: rgb(255 , 255 , 255)&quot;&gt;api层&lt;/span&gt;" style="shape=parallelogram;perimeter=parallelogramPerimeter;whiteSpace=wrap;html=1;fixedSize=1;" parent="X6bCjIrg8prDl-xt0T5_-1" vertex="1">
          <mxGeometry x="350" y="1200" width="120" height="60" as="geometry" />
        </mxCell>
        <mxCell id="X6bCjIrg8prDl-xt0T5_-49" value="&lt;div style=&quot;font-family: &amp;#34;consolas&amp;#34; , &amp;#34;courier new&amp;#34; , monospace ; font-size: 14px ; line-height: 19px&quot;&gt;&lt;font color=&quot;#ff0000&quot; style=&quot;background-color: rgb(255 , 255 , 255)&quot;&gt;&lt;b&gt;PLATFORM&lt;/b&gt;&lt;/font&gt;&lt;/div&gt;" style="html=1;shadow=0;dashed=0;align=center;verticalAlign=middle;shape=mxgraph.arrows2.arrow;dy=0.6;dx=40;notch=15;rotation=90;" parent="X6bCjIrg8prDl-xt0T5_-1" vertex="1">
          <mxGeometry x="394.29" y="965.71" width="140" height="117.38" as="geometry" />
        </mxCell>
        <mxCell id="X6bCjIrg8prDl-xt0T5_-50" value="&lt;div style=&quot;font-family: &amp;#34;consolas&amp;#34; , &amp;#34;courier new&amp;#34; , monospace ; font-size: 14px ; line-height: 19px&quot;&gt;&lt;font color=&quot;#ff0000&quot; style=&quot;background-color: rgb(255 , 255 , 255)&quot;&gt;&lt;b&gt;PROJECTKEY&lt;/b&gt;&lt;/font&gt;&lt;/div&gt;" style="html=1;shadow=0;dashed=0;align=center;verticalAlign=middle;shape=mxgraph.arrows2.arrow;dy=0.6;dx=40;notch=15;rotation=90;" parent="X6bCjIrg8prDl-xt0T5_-1" vertex="1">
          <mxGeometry x="856.41" y="965" width="138.59" height="117.38" as="geometry" />
        </mxCell>
        <mxCell id="X6bCjIrg8prDl-xt0T5_-51" value="&lt;span style=&quot;font-size: 13px ; background-color: rgb(255 , 255 , 255)&quot;&gt;router层&lt;/span&gt;" style="shape=parallelogram;perimeter=parallelogramPerimeter;whiteSpace=wrap;html=1;fixedSize=1;" parent="X6bCjIrg8prDl-xt0T5_-1" vertex="1">
          <mxGeometry x="645" y="1200" width="120" height="60" as="geometry" />
        </mxCell>
        <mxCell id="X6bCjIrg8prDl-xt0T5_-52" value="&lt;span style=&quot;font-size: 13px ; background-color: rgb(255 , 255 , 255)&quot;&gt;vuex层&lt;/span&gt;" style="shape=parallelogram;perimeter=parallelogramPerimeter;whiteSpace=wrap;html=1;fixedSize=1;" parent="X6bCjIrg8prDl-xt0T5_-1" vertex="1">
          <mxGeometry x="920" y="1200" width="120" height="60" as="geometry" />
        </mxCell>
        <mxCell id="X6bCjIrg8prDl-xt0T5_-53" value="&lt;span style=&quot;background-color: rgb(255 , 255 , 255)&quot;&gt;&lt;font style=&quot;font-size: 14px&quot;&gt;根据唯一标准进行 系统级按需打包&lt;/font&gt;&lt;/span&gt;" style="text;html=1;strokeColor=none;fillColor=none;align=center;verticalAlign=middle;whiteSpace=wrap;rounded=0;" parent="X6bCjIrg8prDl-xt0T5_-1" vertex="1">
          <mxGeometry x="515" y="1129" width="390" height="40" as="geometry" />
        </mxCell>
        <mxCell id="X6bCjIrg8prDl-xt0T5_-54" value="&lt;span style=&quot;background-color: rgb(255 , 255 , 255)&quot;&gt;&lt;font style=&quot;font-size: 15px&quot;&gt;分发组件到页面&lt;/font&gt;&lt;/span&gt;" style="html=1;shadow=0;dashed=0;align=center;verticalAlign=middle;shape=mxgraph.arrows2.arrow;dy=0.6;dx=40;direction=south;notch=0;" parent="X6bCjIrg8prDl-xt0T5_-1" vertex="1">
          <mxGeometry x="413" y="1420" width="215" height="180" as="geometry" />
        </mxCell>
        <mxCell id="X6bCjIrg8prDl-xt0T5_-58" value="&lt;span style=&quot;background-color: rgb(255 , 255 , 255)&quot;&gt;&lt;font style=&quot;font-size: 15px&quot;&gt;重组页面到系统&lt;/font&gt;&lt;/span&gt;" style="html=1;shadow=0;dashed=0;align=center;verticalAlign=middle;shape=mxgraph.arrows2.arrow;dy=0.6;dx=40;direction=north;notch=0;" parent="X6bCjIrg8prDl-xt0T5_-1" vertex="1">
          <mxGeometry x="801.25" y="1420" width="207.5" height="180" as="geometry" />
        </mxCell>
        <mxCell id="X6bCjIrg8prDl-xt0T5_-59" value="" style="strokeWidth=2;html=1;shape=mxgraph.flowchart.annotation_1;align=left;pointerEvents=1;rotation=90;" parent="X6bCjIrg8prDl-xt0T5_-1" vertex="1">
          <mxGeometry x="696.25" y="998.75" width="27.5" height="1300" as="geometry" />
        </mxCell>
        <mxCell id="X6bCjIrg8prDl-xt0T5_-60" value="页面1" style="rounded=1;whiteSpace=wrap;html=1;" parent="X6bCjIrg8prDl-xt0T5_-1" vertex="1">
          <mxGeometry x="85" y="1660" width="90" height="40" as="geometry" />
        </mxCell>
        <mxCell id="X6bCjIrg8prDl-xt0T5_-61" value="页面1" style="rounded=1;whiteSpace=wrap;html=1;" parent="X6bCjIrg8prDl-xt0T5_-1" vertex="1">
          <mxGeometry x="200" y="1660" width="90" height="40" as="geometry" />
        </mxCell>
        <mxCell id="X6bCjIrg8prDl-xt0T5_-62" value="页面1" style="rounded=1;whiteSpace=wrap;html=1;" parent="X6bCjIrg8prDl-xt0T5_-1" vertex="1">
          <mxGeometry x="330" y="1660" width="90" height="40" as="geometry" />
        </mxCell>
        <mxCell id="X6bCjIrg8prDl-xt0T5_-63" value="页面1" style="rounded=1;whiteSpace=wrap;html=1;" parent="X6bCjIrg8prDl-xt0T5_-1" vertex="1">
          <mxGeometry x="460" y="1660" width="90" height="40" as="geometry" />
        </mxCell>
        <mxCell id="X6bCjIrg8prDl-xt0T5_-64" value="页面1" style="rounded=1;whiteSpace=wrap;html=1;" parent="X6bCjIrg8prDl-xt0T5_-1" vertex="1">
          <mxGeometry x="600" y="1660" width="90" height="40" as="geometry" />
        </mxCell>
        <mxCell id="X6bCjIrg8prDl-xt0T5_-65" value="页面1" style="rounded=1;whiteSpace=wrap;html=1;" parent="X6bCjIrg8prDl-xt0T5_-1" vertex="1">
          <mxGeometry x="737" y="1660" width="90" height="40" as="geometry" />
        </mxCell>
        <mxCell id="X6bCjIrg8prDl-xt0T5_-66" value="页面1" style="rounded=1;whiteSpace=wrap;html=1;" parent="X6bCjIrg8prDl-xt0T5_-1" vertex="1">
          <mxGeometry x="870" y="1660" width="90" height="40" as="geometry" />
        </mxCell>
        <mxCell id="X6bCjIrg8prDl-xt0T5_-67" value="页面1" style="rounded=1;whiteSpace=wrap;html=1;" parent="X6bCjIrg8prDl-xt0T5_-1" vertex="1">
          <mxGeometry x="1000" y="1660" width="90" height="40" as="geometry" />
        </mxCell>
        <mxCell id="X6bCjIrg8prDl-xt0T5_-68" value="页面1" style="rounded=1;whiteSpace=wrap;html=1;" parent="X6bCjIrg8prDl-xt0T5_-1" vertex="1">
          <mxGeometry x="1130" y="1660" width="90" height="40" as="geometry" />
        </mxCell>
        <mxCell id="X6bCjIrg8prDl-xt0T5_-72" value="页面1" style="rounded=1;whiteSpace=wrap;html=1;" parent="X6bCjIrg8prDl-xt0T5_-1" vertex="1">
          <mxGeometry x="1255" y="1660" width="90" height="40" as="geometry" />
        </mxCell>
        <mxCell id="X6bCjIrg8prDl-xt0T5_-74" value="login" style="shape=ext;double=1;rounded=1;whiteSpace=wrap;html=1;" parent="X6bCjIrg8prDl-xt0T5_-1" vertex="1">
          <mxGeometry x="645" y="1790" width="120" height="50" as="geometry" />
        </mxCell>
        <mxCell id="X6bCjIrg8prDl-xt0T5_-75" value="sp(标准产品)" style="shape=ext;double=1;rounded=1;whiteSpace=wrap;html=1;" parent="X6bCjIrg8prDl-xt0T5_-1" vertex="1">
          <mxGeometry x="170" y="1790" width="120" height="50" as="geometry" />
        </mxCell>
        <mxCell id="X6bCjIrg8prDl-xt0T5_-76" value="dmp(数据中台)" style="shape=ext;double=1;rounded=1;whiteSpace=wrap;html=1;" parent="X6bCjIrg8prDl-xt0T5_-1" vertex="1">
          <mxGeometry x="404.29" y="1790" width="120" height="50" as="geometry" />
        </mxCell>
        <mxCell id="X6bCjIrg8prDl-xt0T5_-77" value="gbc(业务中台)" style="shape=ext;double=1;rounded=1;whiteSpace=wrap;html=1;" parent="X6bCjIrg8prDl-xt0T5_-1" vertex="1">
          <mxGeometry x="910" y="1790" width="120" height="50" as="geometry" />
        </mxCell>
        <mxCell id="X6bCjIrg8prDl-xt0T5_-78" value="系统配置(cfg)" style="shape=ext;double=1;rounded=1;whiteSpace=wrap;html=1;" parent="X6bCjIrg8prDl-xt0T5_-1" vertex="1">
          <mxGeometry x="1165" y="1790" width="120" height="50" as="geometry" />
        </mxCell>
        <mxCell id="X6bCjIrg8prDl-xt0T5_-79" value="" style="shape=curlyBracket;whiteSpace=wrap;html=1;rounded=1;flipH=1;rotation=90;" parent="X6bCjIrg8prDl-xt0T5_-1" vertex="1">
          <mxGeometry x="197.5" y="1650.5" width="65" height="212" as="geometry" />
        </mxCell>
        <mxCell id="X6bCjIrg8prDl-xt0T5_-80" value="" style="shape=curlyBracket;whiteSpace=wrap;html=1;rounded=1;flipH=1;rotation=90;" parent="X6bCjIrg8prDl-xt0T5_-1" vertex="1">
          <mxGeometry x="431.78999999999996" y="1650.5" width="65" height="212" as="geometry" />
        </mxCell>
        <mxCell id="X6bCjIrg8prDl-xt0T5_-81" value="" style="shape=curlyBracket;whiteSpace=wrap;html=1;rounded=1;flipH=1;rotation=90;" parent="X6bCjIrg8prDl-xt0T5_-1" vertex="1">
          <mxGeometry x="677.5" y="1650.5" width="65" height="212" as="geometry" />
        </mxCell>
        <mxCell id="X6bCjIrg8prDl-xt0T5_-82" value="" style="shape=curlyBracket;whiteSpace=wrap;html=1;rounded=1;flipH=1;rotation=90;" parent="X6bCjIrg8prDl-xt0T5_-1" vertex="1">
          <mxGeometry x="937.5" y="1650.5" width="65" height="212" as="geometry" />
        </mxCell>
        <mxCell id="X6bCjIrg8prDl-xt0T5_-84" value="" style="shape=curlyBracket;whiteSpace=wrap;html=1;rounded=1;flipH=1;rotation=90;" parent="X6bCjIrg8prDl-xt0T5_-1" vertex="1">
          <mxGeometry x="1192.5" y="1650.5" width="65" height="212" as="geometry" />
        </mxCell>
        <mxCell id="X6bCjIrg8prDl-xt0T5_-85" value="" style="rounded=0;whiteSpace=wrap;html=1;" parent="X6bCjIrg8prDl-xt0T5_-1" vertex="1">
          <mxGeometry x="-10" y="2050" width="1450" height="560" as="geometry" />
        </mxCell>
        <mxCell id="X6bCjIrg8prDl-xt0T5_-86" value="接口封装" style="rounded=1;whiteSpace=wrap;html=1;" parent="X6bCjIrg8prDl-xt0T5_-1" vertex="1">
          <mxGeometry x="80" y="2110" width="220" height="60" as="geometry" />
        </mxCell>
        <mxCell id="X6bCjIrg8prDl-xt0T5_-87" value="数据处理(转换)" style="rounded=1;whiteSpace=wrap;html=1;" parent="X6bCjIrg8prDl-xt0T5_-1" vertex="1">
          <mxGeometry x="80" y="2290" width="220" height="60" as="geometry" />
        </mxCell>
        <mxCell id="X6bCjIrg8prDl-xt0T5_-88" value="启动缓存" style="rounded=1;whiteSpace=wrap;html=1;" parent="X6bCjIrg8prDl-xt0T5_-1" vertex="1">
          <mxGeometry x="80" y="2490" width="220" height="60" as="geometry" />
        </mxCell>
        <mxCell id="X6bCjIrg8prDl-xt0T5_-91" value="API统一封装" style="rounded=1;whiteSpace=wrap;html=1;" parent="X6bCjIrg8prDl-xt0T5_-1" vertex="1">
          <mxGeometry x="364.29" y="2070" width="365.71" height="40" as="geometry" />
        </mxCell>
        <mxCell id="X6bCjIrg8prDl-xt0T5_-92" value="状态类封装" style="rounded=1;whiteSpace=wrap;html=1;" parent="X6bCjIrg8prDl-xt0T5_-1" vertex="1">
          <mxGeometry x="364.29" y="2120" width="365.71" height="40" as="geometry" />
        </mxCell>
        <mxCell id="X6bCjIrg8prDl-xt0T5_-93" value="文件类封装" style="rounded=1;whiteSpace=wrap;html=1;" parent="X6bCjIrg8prDl-xt0T5_-1" vertex="1">
          <mxGeometry x="364.29" y="2170" width="365.71" height="40" as="geometry" />
        </mxCell>
        <mxCell id="X6bCjIrg8prDl-xt0T5_-94" value="响应类处理" style="rounded=1;whiteSpace=wrap;html=1;" parent="X6bCjIrg8prDl-xt0T5_-1" vertex="1">
          <mxGeometry x="364.29" y="2258.75" width="365.71" height="40" as="geometry" />
        </mxCell>
        <mxCell id="X6bCjIrg8prDl-xt0T5_-95" value="时间转换" style="rounded=1;whiteSpace=wrap;html=1;" parent="X6bCjIrg8prDl-xt0T5_-1" vertex="1">
          <mxGeometry x="364.29" y="2310" width="365.71" height="40" as="geometry" />
        </mxCell>
        <mxCell id="X6bCjIrg8prDl-xt0T5_-96" value="......" style="rounded=1;whiteSpace=wrap;html=1;" parent="X6bCjIrg8prDl-xt0T5_-1" vertex="1">
          <mxGeometry x="364.29" y="2360" width="365.71" height="40" as="geometry" />
        </mxCell>
        <mxCell id="X6bCjIrg8prDl-xt0T5_-97" value="启动http缓存" style="rounded=1;whiteSpace=wrap;html=1;" parent="X6bCjIrg8prDl-xt0T5_-1" vertex="1">
          <mxGeometry x="364.29" y="2450" width="365.71" height="40" as="geometry" />
        </mxCell>
        <mxCell id="X6bCjIrg8prDl-xt0T5_-98" value="启动本地缓存" style="rounded=1;whiteSpace=wrap;html=1;" parent="X6bCjIrg8prDl-xt0T5_-1" vertex="1">
          <mxGeometry x="364.29" y="2500" width="365.71" height="40" as="geometry" />
        </mxCell>
        <mxCell id="X6bCjIrg8prDl-xt0T5_-99" value="开启Cookies" style="rounded=1;whiteSpace=wrap;html=1;" parent="X6bCjIrg8prDl-xt0T5_-1" vertex="1">
          <mxGeometry x="364.29" y="2550" width="365.71" height="40" as="geometry" />
        </mxCell>
        <mxCell id="X6bCjIrg8prDl-xt0T5_-100" value="&lt;span&gt;sessionStorage&lt;/span&gt;" style="rounded=0;whiteSpace=wrap;html=1;" parent="X6bCjIrg8prDl-xt0T5_-1" vertex="1">
          <mxGeometry x="770" y="2440" width="290" height="20" as="geometry" />
        </mxCell>
        <mxCell id="X6bCjIrg8prDl-xt0T5_-101" value="localStorage" style="rounded=0;whiteSpace=wrap;html=1;" parent="X6bCjIrg8prDl-xt0T5_-1" vertex="1">
          <mxGeometry x="770" y="2480" width="290" height="20" as="geometry" />
        </mxCell>
        <mxCell id="X6bCjIrg8prDl-xt0T5_-102" value="工具类" style="shape=doubleArrow;direction=south;whiteSpace=wrap;html=1;" parent="X6bCjIrg8prDl-xt0T5_-1" vertex="1">
          <mxGeometry x="1300" y="914.34" width="110" height="471.31" as="geometry" />
        </mxCell>
        <mxCell id="X6bCjIrg8prDl-xt0T5_-103" value="" style="shape=curlyBracket;whiteSpace=wrap;html=1;rounded=1;" parent="X6bCjIrg8prDl-xt0T5_-1" vertex="1">
          <mxGeometry x="310" y="2080" width="40" height="120" as="geometry" />
        </mxCell>
        <mxCell id="X6bCjIrg8prDl-xt0T5_-105" value="" style="shape=curlyBracket;whiteSpace=wrap;html=1;rounded=1;" parent="X6bCjIrg8prDl-xt0T5_-1" vertex="1">
          <mxGeometry x="310" y="2260" width="40" height="120" as="geometry" />
        </mxCell>
        <mxCell id="X6bCjIrg8prDl-xt0T5_-106" value="" style="shape=curlyBracket;whiteSpace=wrap;html=1;rounded=1;" parent="X6bCjIrg8prDl-xt0T5_-1" vertex="1">
          <mxGeometry x="310" y="2460" width="40" height="120" as="geometry" />
        </mxCell>
        <mxCell id="X6bCjIrg8prDl-xt0T5_-107" value="" style="shape=curlyBracket;whiteSpace=wrap;html=1;rounded=1;" parent="X6bCjIrg8prDl-xt0T5_-1" vertex="1">
          <mxGeometry x="742.5" y="2430" width="20" height="80" as="geometry" />
        </mxCell>
        <mxCell id="X6bCjIrg8prDl-xt0T5_-108" value="工具类" style="rounded=1;whiteSpace=wrap;html=1;" parent="X6bCjIrg8prDl-xt0T5_-1" vertex="1">
          <mxGeometry x="1285" y="2065" width="120" height="530" as="geometry" />
        </mxCell>
        <mxCell id="X6bCjIrg8prDl-xt0T5_-109" value="" style="strokeWidth=2;html=1;shape=mxgraph.flowchart.annotation_1;align=left;pointerEvents=1;rotation=-180;" parent="X6bCjIrg8prDl-xt0T5_-1" vertex="1">
          <mxGeometry x="1077.5" y="2065" width="12.5" height="530" as="geometry" />
        </mxCell>
        <mxCell id="X6bCjIrg8prDl-xt0T5_-110" value="" style="html=1;shadow=0;dashed=0;align=center;verticalAlign=middle;shape=mxgraph.arrows2.arrow;dy=0.6;dx=40;notch=15;rotation=-180;" parent="X6bCjIrg8prDl-xt0T5_-1" vertex="1">
          <mxGeometry x="1125" y="2295" width="130" height="70" as="geometry" />
        </mxCell>
        <mxCell id="X6bCjIrg8prDl-xt0T5_-111" value="&lt;font style=&quot;font-size: 13px&quot;&gt;通信(HTTP)&lt;/font&gt;" style="rounded=0;whiteSpace=wrap;html=1;" parent="X6bCjIrg8prDl-xt0T5_-1" vertex="1">
          <mxGeometry x="-10" y="2860" width="1450" height="90" as="geometry" />
        </mxCell>
        <mxCell id="X6bCjIrg8prDl-xt0T5_-112" value="" style="html=1;shadow=0;dashed=0;align=center;verticalAlign=middle;shape=mxgraph.arrows2.arrow;dy=0.6;dx=40;notch=15;rotation=-90;" parent="X6bCjIrg8prDl-xt0T5_-1" vertex="1">
          <mxGeometry x="235" y="2665" width="200" height="140" as="geometry" />
        </mxCell>
        <mxCell id="X6bCjIrg8prDl-xt0T5_-113" value="" style="html=1;shadow=0;dashed=0;align=center;verticalAlign=middle;shape=mxgraph.arrows2.arrow;dy=0.6;dx=40;notch=15;rotation=-90;" parent="X6bCjIrg8prDl-xt0T5_-1" vertex="1">
          <mxGeometry x="920" y="2665" width="200" height="140" as="geometry" />
        </mxCell>
        <mxCell id="X6bCjIrg8prDl-xt0T5_-114" value="请求" style="text;html=1;strokeColor=none;fillColor=none;align=center;verticalAlign=middle;whiteSpace=wrap;rounded=0;" parent="X6bCjIrg8prDl-xt0T5_-1" vertex="1">
          <mxGeometry x="282.5" y="2730" width="105" height="35" as="geometry" />
        </mxCell>
        <mxCell id="X6bCjIrg8prDl-xt0T5_-115" value="响应" style="text;html=1;strokeColor=none;fillColor=none;align=center;verticalAlign=middle;whiteSpace=wrap;rounded=0;" parent="X6bCjIrg8prDl-xt0T5_-1" vertex="1">
          <mxGeometry x="967.5" y="2717.5" width="105" height="35" as="geometry" />
        </mxCell>
        <mxCell id="X6bCjIrg8prDl-xt0T5_-116" value="" style="rounded=0;whiteSpace=wrap;html=1;" parent="X6bCjIrg8prDl-xt0T5_-1" vertex="1">
          <mxGeometry x="-10" y="-140" width="1440" height="560" as="geometry" />
        </mxCell>
        <mxCell id="X6bCjIrg8prDl-xt0T5_-117" value="" style="rounded=0;whiteSpace=wrap;html=1;" parent="X6bCjIrg8prDl-xt0T5_-1" vertex="1">
          <mxGeometry x="90" y="-30" width="1255" height="200" as="geometry" />
        </mxCell>
        <mxCell id="X6bCjIrg8prDl-xt0T5_-118" value="" style="rounded=0;whiteSpace=wrap;html=1;" parent="X6bCjIrg8prDl-xt0T5_-1" vertex="1">
          <mxGeometry x="90" y="190" width="1255" height="200" as="geometry" />
        </mxCell>
        <mxCell id="X6bCjIrg8prDl-xt0T5_-119" value="&lt;span style=&quot;font-size: 15px&quot;&gt;第三方库(组件)&lt;/span&gt;" style="text;html=1;strokeColor=none;fillColor=none;align=center;verticalAlign=middle;whiteSpace=wrap;rounded=0;" parent="X6bCjIrg8prDl-xt0T5_-1" vertex="1">
          <mxGeometry x="620" y="200" width="190" height="40" as="geometry" />
        </mxCell>
        <mxCell id="X6bCjIrg8prDl-xt0T5_-120" value="图表库(echarts)" style="rounded=1;whiteSpace=wrap;html=1;" parent="X6bCjIrg8prDl-xt0T5_-1" vertex="1">
          <mxGeometry x="620" y="280" width="195" height="60" as="geometry" />
        </mxCell>
        <mxCell id="X6bCjIrg8prDl-xt0T5_-121" value="日期(moment)" style="rounded=1;whiteSpace=wrap;html=1;" parent="X6bCjIrg8prDl-xt0T5_-1" vertex="1">
          <mxGeometry x="856.41" y="280" width="195" height="60" as="geometry" />
        </mxCell>
        <mxCell id="X6bCjIrg8prDl-xt0T5_-122" value="其他" style="rounded=1;whiteSpace=wrap;html=1;" parent="X6bCjIrg8prDl-xt0T5_-1" vertex="1">
          <mxGeometry x="1092.5" y="280" width="195" height="60" as="geometry" />
        </mxCell>
        <mxCell id="X6bCjIrg8prDl-xt0T5_-123" value="绘图引擎(@antv)" style="rounded=1;whiteSpace=wrap;html=1;" parent="X6bCjIrg8prDl-xt0T5_-1" vertex="1">
          <mxGeometry x="135" y="280" width="195" height="60" as="geometry" />
        </mxCell>
        <mxCell id="X6bCjIrg8prDl-xt0T5_-124" value="绘图引擎(@topology)" style="rounded=1;whiteSpace=wrap;html=1;" parent="X6bCjIrg8prDl-xt0T5_-1" vertex="1">
          <mxGeometry x="375" y="280" width="195" height="60" as="geometry" />
        </mxCell>
        <mxCell id="X6bCjIrg8prDl-xt0T5_-125" value="&lt;span style=&quot;font-size: 15px&quot;&gt;内置层&lt;/span&gt;" style="text;html=1;strokeColor=none;fillColor=none;align=center;verticalAlign=middle;whiteSpace=wrap;rounded=0;" parent="X6bCjIrg8prDl-xt0T5_-1" vertex="1">
          <mxGeometry x="620" y="120" width="190" height="40" as="geometry" />
        </mxCell>
        <mxCell id="X6bCjIrg8prDl-xt0T5_-126" value="样式库(element-gui)&lt;br&gt;(less/scss)" style="rounded=1;whiteSpace=wrap;html=1;" parent="X6bCjIrg8prDl-xt0T5_-1" vertex="1">
          <mxGeometry x="175" y="40" width="195" height="60" as="geometry" />
        </mxCell>
        <mxCell id="X6bCjIrg8prDl-xt0T5_-127" value="路由(vue-router)" style="rounded=1;whiteSpace=wrap;html=1;" parent="X6bCjIrg8prDl-xt0T5_-1" vertex="1">
          <mxGeometry x="460" y="40" width="195" height="60" as="geometry" />
        </mxCell>
        <mxCell id="X6bCjIrg8prDl-xt0T5_-128" value="状态机(vuex)" style="rounded=1;whiteSpace=wrap;html=1;" parent="X6bCjIrg8prDl-xt0T5_-1" vertex="1">
          <mxGeometry x="762.5" y="40" width="195" height="60" as="geometry" />
        </mxCell>
        <mxCell id="X6bCjIrg8prDl-xt0T5_-129" value="网络(axios)" style="rounded=1;whiteSpace=wrap;html=1;" parent="X6bCjIrg8prDl-xt0T5_-1" vertex="1">
          <mxGeometry x="1062.5" y="40" width="195" height="60" as="geometry" />
        </mxCell>
        <mxCell id="X6bCjIrg8prDl-xt0T5_-130" value="&lt;span style=&quot;background-color: rgb(255 , 255 , 255)&quot;&gt;&lt;font style=&quot;font-size: 16px&quot;&gt;基础库(vue.2x)&lt;/font&gt;&lt;/span&gt;" style="text;html=1;strokeColor=none;fillColor=none;align=center;verticalAlign=middle;whiteSpace=wrap;rounded=0;" parent="X6bCjIrg8prDl-xt0T5_-1" vertex="1">
          <mxGeometry x="630" y="-110" width="170" height="40" as="geometry" />
        </mxCell>
        <mxCell id="X6bCjIrg8prDl-xt0T5_-131" value="" style="rounded=0;whiteSpace=wrap;html=1;" parent="X6bCjIrg8prDl-xt0T5_-1" vertex="1">
          <mxGeometry x="-10" y="-350" width="1440" height="140" as="geometry" />
        </mxCell>
        <mxCell id="X6bCjIrg8prDl-xt0T5_-133" value="模板渲染引擎" style="rounded=1;whiteSpace=wrap;html=1;" parent="X6bCjIrg8prDl-xt0T5_-1" vertex="1">
          <mxGeometry x="210" y="-310" width="360" height="60" as="geometry" />
        </mxCell>
        <mxCell id="X6bCjIrg8prDl-xt0T5_-134" value="图形渲染引擎" style="rounded=1;whiteSpace=wrap;html=1;" parent="X6bCjIrg8prDl-xt0T5_-1" vertex="1">
          <mxGeometry x="832.5" y="-310" width="360" height="60" as="geometry" />
        </mxCell>
        <mxCell id="X6bCjIrg8prDl-xt0T5_-135" value="&lt;font style=&quot;font-size: 13px&quot;&gt;PC&lt;br&gt;http://gst-dev.glodon.com&lt;/font&gt;" style="rounded=0;whiteSpace=wrap;html=1;" parent="X6bCjIrg8prDl-xt0T5_-1" vertex="1">
          <mxGeometry x="-10" y="-490" width="1440" height="90" as="geometry" />
        </mxCell>
        <mxCell id="X6bCjIrg8prDl-xt0T5_-136" value="" style="rounded=0;whiteSpace=wrap;html=1;" parent="X6bCjIrg8prDl-xt0T5_-1" vertex="1">
          <mxGeometry x="1690" y="-140" width="390" height="560" as="geometry" />
        </mxCell>
        <mxCell id="X6bCjIrg8prDl-xt0T5_-137" value="&lt;span style=&quot;background-color: rgb(255 , 255 , 255)&quot;&gt;&lt;font style=&quot;font-size: 15px&quot;&gt;基础库 vue3.x + ts&lt;/font&gt;&lt;/span&gt;" style="text;html=1;strokeColor=none;fillColor=none;align=center;verticalAlign=middle;whiteSpace=wrap;rounded=0;" parent="X6bCjIrg8prDl-xt0T5_-1" vertex="1">
          <mxGeometry x="1755" y="-120" width="260" height="50" as="geometry" />
        </mxCell>
        <mxCell id="X6bCjIrg8prDl-xt0T5_-138" value="内置库升级" style="rounded=1;whiteSpace=wrap;html=1;" parent="X6bCjIrg8prDl-xt0T5_-1" vertex="1">
          <mxGeometry x="1747.5" width="275" height="70" as="geometry" />
        </mxCell>
        <mxCell id="X6bCjIrg8prDl-xt0T5_-139" value="第三方库(组件)升级" style="rounded=1;whiteSpace=wrap;html=1;" parent="X6bCjIrg8prDl-xt0T5_-1" vertex="1">
          <mxGeometry x="1747.5" y="185" width="275" height="70" as="geometry" />
        </mxCell>
        <mxCell id="X6bCjIrg8prDl-xt0T5_-141" value="升级" style="html=1;shadow=0;dashed=0;align=center;verticalAlign=middle;shape=mxgraph.arrows2.arrow;dy=0.6;dx=40;notch=15;" parent="X6bCjIrg8prDl-xt0T5_-1" vertex="1">
          <mxGeometry x="1450" y="80" width="210" height="120" as="geometry" />
        </mxCell>
        <mxCell id="X6bCjIrg8prDl-xt0T5_-142" value="" style="shape=curlyBracket;whiteSpace=wrap;html=1;rounded=1;" parent="X6bCjIrg8prDl-xt0T5_-1" vertex="1">
          <mxGeometry x="2090" y="-490" width="130" height="3450" as="geometry" />
        </mxCell>
        <mxCell id="X6bCjIrg8prDl-xt0T5_-143" value="&lt;font style=&quot;font-size: 15px&quot;&gt;权限控制&lt;/font&gt;" style="text;html=1;strokeColor=none;fillColor=none;align=center;verticalAlign=middle;whiteSpace=wrap;rounded=0;" parent="X6bCjIrg8prDl-xt0T5_-1" vertex="1">
          <mxGeometry x="1980" y="1211.25" width="120" height="47.5" as="geometry" />
        </mxCell>
        <mxCell id="X6bCjIrg8prDl-xt0T5_-144" value="&lt;font style=&quot;font-size: 16px&quot;&gt;后端&lt;br&gt;&lt;br&gt;G3&lt;/font&gt;" style="rounded=0;whiteSpace=wrap;html=1;" parent="X6bCjIrg8prDl-xt0T5_-1" vertex="1">
          <mxGeometry x="2270" y="-135" width="570" height="1195" as="geometry" />
        </mxCell>
        <mxCell id="X6bCjIrg8prDl-xt0T5_-145" value="" style="rounded=0;whiteSpace=wrap;html=1;" parent="X6bCjIrg8prDl-xt0T5_-1" vertex="1">
          <mxGeometry x="2270" y="1385" width="1200" height="1195" as="geometry" />
        </mxCell>
        <mxCell id="X6bCjIrg8prDl-xt0T5_-146" value="&lt;font style=&quot;font-size: 16px&quot;&gt;前端&lt;br&gt;&lt;br&gt;中控&lt;br&gt;http://10.0.204.111:19090/middleControl/desk&lt;/font&gt;" style="text;html=1;strokeColor=none;fillColor=none;align=center;verticalAlign=middle;whiteSpace=wrap;rounded=0;" parent="X6bCjIrg8prDl-xt0T5_-1" vertex="1">
          <mxGeometry x="2695" y="1420" width="400" height="90" as="geometry" />
        </mxCell>
        <mxCell id="X6bCjIrg8prDl-xt0T5_-148" value="系统" style="rounded=1;whiteSpace=wrap;html=1;" parent="X6bCjIrg8prDl-xt0T5_-1" vertex="1">
          <mxGeometry x="2310" y="1600" width="220" height="80" as="geometry" />
        </mxCell>
        <mxCell id="X6bCjIrg8prDl-xt0T5_-149" value="组" style="rounded=1;whiteSpace=wrap;html=1;" parent="X6bCjIrg8prDl-xt0T5_-1" vertex="1">
          <mxGeometry x="2610" y="1600" width="220" height="80" as="geometry" />
        </mxCell>
        <mxCell id="X6bCjIrg8prDl-xt0T5_-150" value="用户" style="rounded=1;whiteSpace=wrap;html=1;" parent="X6bCjIrg8prDl-xt0T5_-1" vertex="1">
          <mxGeometry x="2910" y="1600" width="220" height="80" as="geometry" />
        </mxCell>
        <mxCell id="X6bCjIrg8prDl-xt0T5_-151" value="首选项" style="rounded=1;whiteSpace=wrap;html=1;" parent="X6bCjIrg8prDl-xt0T5_-1" vertex="1">
          <mxGeometry x="3210" y="1600" width="220" height="80" as="geometry" />
        </mxCell>
        <mxCell id="X6bCjIrg8prDl-xt0T5_-152" value="模块" style="rounded=1;whiteSpace=wrap;html=1;" parent="X6bCjIrg8prDl-xt0T5_-1" vertex="1">
          <mxGeometry x="2310" y="1862.5" width="220" height="80" as="geometry" />
        </mxCell>
        <mxCell id="X6bCjIrg8prDl-xt0T5_-153" value="角色" style="rounded=1;whiteSpace=wrap;html=1;" parent="X6bCjIrg8prDl-xt0T5_-1" vertex="1">
          <mxGeometry x="2310" y="2170" width="220" height="80" as="geometry" />
        </mxCell>
        <mxCell id="X6bCjIrg8prDl-xt0T5_-154" value="" style="shape=singleArrow;whiteSpace=wrap;html=1;" parent="X6bCjIrg8prDl-xt0T5_-1" vertex="1">
          <mxGeometry x="2580" y="1871.25" width="100" height="60" as="geometry" />
        </mxCell>
        <mxCell id="X6bCjIrg8prDl-xt0T5_-155" value="选择模块(系统)" style="rounded=1;whiteSpace=wrap;html=1;" parent="X6bCjIrg8prDl-xt0T5_-1" vertex="1">
          <mxGeometry x="2740" y="1873.75" width="220" height="57.5" as="geometry" />
        </mxCell>
        <mxCell id="X6bCjIrg8prDl-xt0T5_-157" value="创建文件夹(菜单)" style="rounded=1;whiteSpace=wrap;html=1;" parent="X6bCjIrg8prDl-xt0T5_-1" vertex="1">
          <mxGeometry x="3040" y="1840" width="220" height="50" as="geometry" />
        </mxCell>
        <mxCell id="X6bCjIrg8prDl-xt0T5_-158" value="手动增加模块(详情页配置)" style="rounded=1;whiteSpace=wrap;html=1;" parent="X6bCjIrg8prDl-xt0T5_-1" vertex="1">
          <mxGeometry x="3040" y="1912.5" width="220" height="50" as="geometry" />
        </mxCell>
        <mxCell id="X6bCjIrg8prDl-xt0T5_-159" value="" style="shape=curlyBracket;whiteSpace=wrap;html=1;rounded=1;" parent="X6bCjIrg8prDl-xt0T5_-1" vertex="1">
          <mxGeometry x="2980" y="1842.5" width="30" height="120" as="geometry" />
        </mxCell>
        <mxCell id="X6bCjIrg8prDl-xt0T5_-164" style="edgeStyle=orthogonalEdgeStyle;rounded=0;orthogonalLoop=1;jettySize=auto;html=1;exitX=1;exitY=0.5;exitDx=0;exitDy=0;" parent="X6bCjIrg8prDl-xt0T5_-1" source="X6bCjIrg8prDl-xt0T5_-160" target="X6bCjIrg8prDl-xt0T5_-161" edge="1">
          <mxGeometry relative="1" as="geometry" />
        </mxCell>
        <mxCell id="X6bCjIrg8prDl-xt0T5_-160" value="选择角色(系统)" style="rounded=1;whiteSpace=wrap;html=1;" parent="X6bCjIrg8prDl-xt0T5_-1" vertex="1">
          <mxGeometry x="2740" y="2181.25" width="220" height="57.5" as="geometry" />
        </mxCell>
        <mxCell id="X6bCjIrg8prDl-xt0T5_-167" style="edgeStyle=orthogonalEdgeStyle;rounded=0;orthogonalLoop=1;jettySize=auto;html=1;exitX=1;exitY=0.5;exitDx=0;exitDy=0;entryX=0.045;entryY=0.572;entryDx=0;entryDy=0;entryPerimeter=0;" parent="X6bCjIrg8prDl-xt0T5_-1" source="X6bCjIrg8prDl-xt0T5_-161" target="X6bCjIrg8prDl-xt0T5_-162" edge="1">
          <mxGeometry relative="1" as="geometry" />
        </mxCell>
        <mxCell id="X6bCjIrg8prDl-xt0T5_-161" value="编辑" style="rounded=1;whiteSpace=wrap;html=1;" parent="X6bCjIrg8prDl-xt0T5_-1" vertex="1">
          <mxGeometry x="3040" y="2185" width="90" height="50" as="geometry" />
        </mxCell>
        <mxCell id="X6bCjIrg8prDl-xt0T5_-162" value="选择要显示的菜单" style="rounded=1;whiteSpace=wrap;html=1;" parent="X6bCjIrg8prDl-xt0T5_-1" vertex="1">
          <mxGeometry x="3210" y="2181.25" width="220" height="50" as="geometry" />
        </mxCell>
        <mxCell id="X6bCjIrg8prDl-xt0T5_-163" value="" style="shape=singleArrow;whiteSpace=wrap;html=1;" parent="X6bCjIrg8prDl-xt0T5_-1" vertex="1">
          <mxGeometry x="2580" y="2181.25" width="100" height="60" as="geometry" />
        </mxCell>
      </root>
    </mxGraphModel>
  </diagram>
</mxfile>
